<svg width="13" height="18" viewBox="0 0 13 18" fill="none" xmlns="http://www.w3.org/2000/svg">
    <path
        d="M6.44583 17.8C6.20874 17.8 5.99536 17.6108 5.99536 17.3742V17.3505V15.3398H1.15871C0.731951 15.3398 0.400024 15.0086 0.400024 14.5828V0.957001C0.400024 0.531195 0.731951 0.200012 1.15871 0.200012H9.21978C9.40945 0.200012 9.62284 0.27098 9.74138 0.412915L12.6102 3.27528C12.7524 3.41722 12.8236 3.60646 12.8236 3.79571V14.5592C12.8236 14.985 12.4916 15.3161 12.0649 15.3161H7.20451V17.3269C7.20451 17.5871 6.99113 17.8 6.75404 17.8H6.44583ZM11.5907 14.0624V5.28603H8.50851C8.08175 5.28603 7.74982 4.95485 7.74982 4.5527V1.47743H1.6566V14.086H5.99536V12.2409H4.78619C4.5254 12.2409 4.31201 12.028 4.31201 11.7678C4.31201 11.6731 4.35943 11.5785 4.40685 11.4839L6.27986 9.00001C6.44583 8.81076 6.70663 8.78711 6.92001 8.92904C6.94372 8.9527 8.81673 11.4839 8.81673 11.4839C8.98269 11.6968 8.93527 11.9807 8.72189 12.1462C8.65077 12.1936 8.55593 12.2409 8.46109 12.2409H7.22822V14.086L11.5907 14.0624ZM9.14866 3.89033H11.3062L9.14866 1.73765V3.89033Z"
        fill="black" />
</svg>