<svg width="14" height="17" viewBox="0 0 14 17" fill="none" xmlns="http://www.w3.org/2000/svg">
    <path
        d="M13.1539 4.14842L10.1517 1.14627C10.0027 0.997225 9.81103 0.93335 9.59811 0.93335H1.18782C0.740694 0.93335 0.400024 1.27402 0.400024 1.72115V15.9867C0.400024 16.4338 0.740694 16.7745 1.18782 16.7745H12.6216C13.0687 16.7745 13.4094 16.4338 13.4094 15.9867V4.7233C13.3668 4.51038 13.3029 4.29747 13.1539 4.14842ZM9.30003 2.35991L11.9615 5.02139H9.30003V2.35991ZM1.52849 15.6673V1.99794H8.10768V5.31948C8.10768 5.7879 8.46964 6.12857 8.91677 6.12857H12.2383V15.646L1.52849 15.6673Z"
        fill="black" />
</svg>