<svg width="17" height="15" viewBox="0 0 17 15" fill="none" xmlns="http://www.w3.org/2000/svg">
    <path
        d="M16.752 3.81106C16.752 3.34204 16.4535 2.97962 16.0698 2.97962H9.01318L7.43558 0.634533C7.30766 0.4853 7.11579 0.400024 6.94524 0.400024H1.63681C1.25307 0.400024 0.933289 0.783766 0.933289 1.2741V13.1914C0.933289 13.6604 1.25307 14.0228 1.63681 14.0655H16.0698C16.3895 14.0655 16.688 13.7883 16.752 13.4046C16.752 4.00293 16.7733 9.41795 16.7733 4.91965L16.752 3.81106ZM15.6434 4.15216V12.9356L2.02056 12.8929V1.50861L6.77469 1.57257L8.41625 4.00293C8.50153 4.10953 8.62944 4.17348 8.73603 4.17348H15.6434V4.15216Z"
        fill="black" />
</svg>