<svg width="14" height="17" viewBox="0 0 14 17" fill="none" xmlns="http://www.w3.org/2000/svg">
    <path
        d="M13.41 15.3895V2.33851C13.41 2.16819 13.3249 2.01916 13.1332 1.9127L11.281 0.97593C11.2171 0.95464 11.132 0.93335 11.0681 0.93335H0.870022C0.593248 0.95464 0.401635 1.14625 0.401635 1.40174V16.305C0.380344 16.5179 0.571957 16.7521 0.870022 16.7734H11.0681C11.132 16.7734 11.2171 16.7521 11.281 16.7308L13.1332 15.794C13.3249 15.7088 13.41 15.5598 13.41 15.3895ZM12.3029 14.985L11.3662 15.4533V13.2179L12.3029 12.7495V14.985ZM12.3029 11.4934L11.3662 11.9617V9.72625L12.3029 9.25787V11.4934ZM12.3029 8.06561L11.3662 8.534V6.29851L12.3029 5.83012V8.06561ZM12.0687 4.70174L10.5358 5.34045C10.3868 5.4469 10.2591 5.59593 10.2591 5.76625V15.645H1.53002V2.04045H10.7913L12.0474 2.63658L12.0687 4.70174Z"
        fill="black" />
</svg>