<svg width="18" height="18" viewBox="0 0 18 18" fill="none" xmlns="http://www.w3.org/2000/svg">
    <path
        d="M16.3241 6.48972V5.28396C17.1279 5.28396 17.7899 4.62198 17.7899 3.81814V1.99768C17.7899 1.19384 17.1279 0.531854 16.3241 0.531854H14.5036C13.6998 0.531854 13.0378 1.19384 13.0378 1.99768V2.44688H5.6141C5.42497 0.957416 4.05371 0.0353651 2.56424 0.224504C1.19299 0.39 0.200012 1.52483 0.200012 2.89609C0.200012 4.40919 1.42941 5.59131 2.94252 5.59131C4.19557 5.59131 5.25947 4.8584 5.56682 3.67628H13.0851V3.79449C13.0851 4.59833 13.7471 5.26032 14.5509 5.26032H15.0947V6.2533C15.0947 7.41177 13.8889 8.35746 12.6359 8.35746H5.70867C3.67543 8.35746 1.99683 9.87057 1.99683 11.7383V12.7786H1.85497C1.05114 12.7786 0.389151 13.4406 0.389151 14.2444V16.0649C0.389151 16.8687 1.05114 17.5307 1.85497 17.5307H3.69908C4.50292 17.5307 5.1649 16.8687 5.1649 16.0649V15.7812H12.4231C12.7068 17.2233 14.1017 18.0272 15.5439 17.7435C16.7733 17.507 17.5771 16.3959 17.5771 15.1665C17.5771 13.7006 16.4896 12.5185 15.0238 12.5185C13.7471 12.5185 12.6832 13.2987 12.4231 14.5518H5.14126V14.268C5.14126 13.4642 4.47927 12.8022 3.67543 12.8022H3.24987V11.8802C3.24987 10.7217 4.45563 9.61051 5.68503 9.61051H12.6122C14.6218 9.63415 16.3241 8.35746 16.3241 6.48972ZM2.89524 4.33827C2.0914 4.33827 1.42941 3.67628 1.42941 2.89609C1.42941 2.09225 2.0914 1.43026 2.87159 1.43026C3.67543 1.43026 4.33742 2.09225 4.33742 2.87244C4.36106 3.72357 3.69908 4.33827 2.89524 4.33827ZM14.48 4.03092C14.3381 4.03092 14.2672 3.93635 14.2672 3.81814V1.99768C14.2672 1.85582 14.3618 1.7849 14.48 1.7849H16.3241C16.4659 1.7849 16.5369 1.87947 16.5369 1.99768V3.81814C16.5369 3.95999 16.4423 4.03092 16.3241 4.03092H14.48ZM14.9528 13.7952C15.7094 13.7952 16.3477 14.4099 16.3477 15.1901C16.3477 15.9466 15.733 16.585 14.9528 16.585C14.1726 16.585 13.5579 15.9703 13.5579 15.1901C13.5579 14.3863 14.1726 13.7952 14.9528 13.7952ZM3.65179 14.008C3.79365 14.008 3.88821 14.1025 3.88821 14.2208V16.0649C3.88821 16.2067 3.79365 16.2776 3.65179 16.2776H1.80769C1.66584 16.2776 1.57127 16.1831 1.57127 16.0649V14.2208C1.57127 14.0789 1.66584 14.008 1.80769 14.008H3.65179Z"
        fill="black" />
</svg>